<svg width="69" height="95" viewBox="0 0 69 95" fill="none" xmlns="http://www.w3.org/2000/svg">
<g filter="url(#filter0_d_10_38745)">
<path d="M0 2V91H1V92H2V93H67V92H68V91H69V2H68V1H67V0H2V1H1V2H0Z" fill="white"/>
<path d="M66.5 0.5V1.5H67.5V2.5H68.5V90.5H67.5V91.5H66.5V92.5H2.5V91.5H1.5V90.5H0.5V2.5H1.5V1.5H2.5V0.5H66.5Z" stroke="#DCDCDC"/>
</g>
<rect x="13" y="63" width="1" height="1" fill="#4F6367"/>
<rect x="14" y="64" width="1" height="1" fill="#4F6367"/>
<rect x="13" y="65" width="1" height="1" fill="#4F6367"/>
<rect x="13" y="66" width="1" height="1" fill="#4F6367"/>
<rect x="13" y="67" width="1" height="1" fill="#4F6367"/>
<rect x="14" y="68" width="1" height="1" fill="#4F6367"/>
<rect x="15" y="68" width="1" height="1" fill="#4F6367"/>
<rect x="16" y="68" width="1" height="1" fill="#4F6367"/>
<rect x="17" y="67" width="1" height="1" fill="#4F6367"/>
<rect x="17" y="66" width="1" height="1" fill="#4F6367"/>
<rect x="17" y="65" width="1" height="1" fill="#4F6367"/>
<rect x="18" y="65" width="1" height="1" fill="#4F6367"/>
<rect x="19" y="64" width="1" height="1" fill="#4F6367"/>
<rect x="20" y="64" width="1" height="1" fill="#4F6367"/>
<rect x="21" y="63" width="1" height="1" fill="#4F6367"/>
<rect x="22" y="64" width="1" height="1" fill="#4F6367"/>
<rect x="22" y="65" width="1" height="1" fill="#4F6367"/>
<rect x="22" y="66" width="1" height="1" fill="#4F6367"/>
<rect x="22" y="67" width="1" height="1" fill="#4F6367"/>
<rect x="22" y="68" width="1" height="1" fill="#4F6367"/>
<rect x="22" y="69" width="1" height="1" fill="#4F6367"/>
<rect x="23" y="70" width="1" height="1" fill="#4F6367"/>
<rect x="22" y="71" width="1" height="1" fill="#4F6367"/>
<rect x="22" y="72" width="1" height="1" fill="#4F6367"/>
<rect x="22" y="73" width="1" height="1" fill="#4F6367"/>
<rect x="23" y="74" width="1" height="1" fill="#4F6367"/>
<rect x="24" y="74" width="1" height="1" fill="#4F6367"/>
<rect x="25" y="74" width="1" height="1" fill="#4F6367"/>
<path d="M29 69H30V70H29V69Z" fill="#4F6367"/>
<path d="M30 68H31V69H30V68Z" fill="#4F6367"/>
<path d="M31 67H32V68H31V67Z" fill="#4F6367"/>
<path d="M31 66H32V67H31V66Z" fill="#4F6367"/>
<path d="M32 65H33V66H32V65Z" fill="#4F6367"/>
<path d="M33 64H34V65H33V64Z" fill="#4F6367"/>
<path d="M34 64H35V65H34V64Z" fill="#4F6367"/>
<path d="M35 64H36V65H35V64Z" fill="#4F6367"/>
<path d="M36 65H37V66H36V65Z" fill="#4F6367"/>
<path d="M37 66H38V67H37V66Z" fill="#4F6367"/>
<path d="M37 67H38V68H37V67Z" fill="#4F6367"/>
<path d="M38 68H39V69H38V68Z" fill="#4F6367"/>
<path d="M39 69H40V70H39V69Z" fill="#4F6367"/>
<path d="M40 70H41V71H40V70Z" fill="#4F6367"/>
<path d="M41 71H42V72H41V71Z" fill="#4F6367"/>
<path d="M42 71H43V72H42V71Z" fill="#4F6367"/>
<path d="M42 72H43V73H42V72Z" fill="#4F6367"/>
<path d="M42 73H43V74H42V73Z" fill="#4F6367"/>
<path d="M43 74H44V75H43V74Z" fill="#4F6367"/>
<path d="M44 74H45V75H44V74Z" fill="#4F6367"/>
<path d="M45 74H46V75H45V74Z" fill="#4F6367"/>
<path d="M46 73H47V74H46V73Z" fill="#4F6367"/>
<path d="M46 72H47V73H46V72Z" fill="#4F6367"/>
<path d="M46 71H47V72H46V71Z" fill="#4F6367"/>
<path d="M45 70H46V71H45V70Z" fill="#4F6367"/>
<path d="M46 69H47V70H46V69Z" fill="#4F6367"/>
<path d="M46 68H47V69H46V68Z" fill="#4F6367"/>
<path d="M46 67H47V68H46V67Z" fill="#4F6367"/>
<path d="M46 66H47V67H46V66Z" fill="#4F6367"/>
<path d="M46 65H47V66H46V65Z" fill="#4F6367"/>
<path d="M46 64H47V65H46V64Z" fill="#4F6367"/>
<path d="M47 63H48V64H47V63Z" fill="#4F6367"/>
<path d="M48 64H49V65H48V64Z" fill="#4F6367"/>
<path d="M49 64H50V65H49V64Z" fill="#4F6367"/>
<path d="M50 65H51V66H50V65Z" fill="#4F6367"/>
<path d="M51 65H52V66H51V65Z" fill="#4F6367"/>
<path d="M51 66H52V67H51V66Z" fill="#4F6367"/>
<path d="M51 67H52V68H51V67Z" fill="#4F6367"/>
<path d="M52 68H53V69H52V68Z" fill="#4F6367"/>
<path d="M53 68H54V69H53V68Z" fill="#4F6367"/>
<path d="M54 67H55V68H54V67Z" fill="#4F6367"/>
<path d="M54 66H55V67H54V66Z" fill="#4F6367"/>
<path d="M54 65H55V66H54V65Z" fill="#4F6367"/>
<path d="M53 64H54V65H53V64Z" fill="#4F6367"/>
<path d="M54 63H55V64H54V63Z" fill="#4F6367"/>
<path d="M55 62H56V63H55V62Z" fill="#4F6367"/>
<path d="M55 61H56V62H55V61Z" fill="#4F6367"/>
<path d="M55 60H56V61H55V60Z" fill="#4F6367"/>
<path d="M55 59H56V60H55V59Z" fill="#4F6367"/>
<path d="M54 58H55V59H54V58Z" fill="#4F6367"/>
<path d="M54 57H55V58H54V57Z" fill="#4F6367"/>
<path d="M53 56H54V57H53V56Z" fill="#4F6367"/>
<path d="M52 55H53V56H52V55Z" fill="#4F6367"/>
<path d="M51 55H52V56H51V55Z" fill="#4F6367"/>
<path d="M50 54H51V55H50V54Z" fill="#4F6367"/>
<path d="M49 54H50V55H49V54Z" fill="#4F6367"/>
<path d="M48 53H49V54H48V53Z" fill="#4F6367"/>
<path d="M47 53H48V54H47V53Z" fill="#4F6367"/>
<path d="M46 52H47V53H46V52Z" fill="#4F6367"/>
<path d="M45 52H46V53H45V52Z" fill="#4F6367"/>
<path d="M44 52H45V53H44V52Z" fill="#4F6367"/>
<path d="M43 52H44V53H43V52Z" fill="#4F6367"/>
<path d="M27 71H28V72H27V71Z" fill="#4F6367"/>
<path d="M28 70H29V71H28V70Z" fill="#4F6367"/>
<rect x="26" y="73" width="1" height="1" fill="#4F6367"/>
<rect x="26" y="72" width="1" height="1" fill="#4F6367"/>
<rect x="13" y="62" width="1" height="1" fill="#4F6367"/>
<rect x="13" y="61" width="1" height="1" fill="#4F6367"/>
<rect x="13" y="60" width="1" height="1" fill="#4F6367"/>
<rect x="13" y="59" width="1" height="1" fill="#4F6367"/>
<rect x="14" y="58" width="1" height="1" fill="#4F6367"/>
<rect x="14" y="57" width="1" height="1" fill="#4F6367"/>
<rect x="15" y="56" width="1" height="1" fill="#4F6367"/>
<rect x="16" y="55" width="1" height="1" fill="#4F6367"/>
<rect x="17" y="55" width="1" height="1" fill="#4F6367"/>
<rect x="18" y="54" width="1" height="1" fill="#4F6367"/>
<rect x="19" y="54" width="1" height="1" fill="#4F6367"/>
<rect x="20" y="53" width="1" height="1" fill="#4F6367"/>
<rect x="21" y="53" width="1" height="1" fill="#4F6367"/>
<rect x="22" y="53" width="1" height="1" fill="#4F6367"/>
<rect x="23" y="52" width="1" height="1" fill="#4F6367"/>
<rect x="24" y="52" width="1" height="1" fill="#4F6367"/>
<rect x="25" y="52" width="1" height="1" fill="#4F6367"/>
<path d="M26 52H27V53H26V52Z" fill="#4F6367"/>
<path d="M31 53H32V54H31V53Z" fill="#4F6367"/>
<path d="M27 52H28V53H27V52Z" fill="#4F6367"/>
<rect x="28" y="53" width="1" height="1" fill="#4F6367"/>
<rect x="30" y="53" width="1" height="1" fill="#4F6367"/>
<rect x="29" y="53" width="1" height="1" fill="#4F6367"/>
<rect x="29" y="55" width="1" height="1" fill="#4F6367"/>
<rect x="32" y="54" width="1" height="1" fill="#4F6367"/>
<rect x="33" y="54" width="1" height="1" fill="#4F6367"/>
<rect x="34" y="54" width="1" height="1" fill="#4F6367"/>
<rect x="35" y="54" width="1" height="1" fill="#4F6367"/>
<rect x="36" y="54" width="1" height="1" fill="#4F6367"/>
<rect x="39" y="55" width="1" height="1" fill="#4F6367"/>
<rect x="39" y="53" width="1" height="1" fill="#4F6367"/>
<rect x="38" y="53" width="1" height="1" fill="#4F6367"/>
<rect x="37" y="53" width="1" height="1" fill="#4F6367"/>
<rect x="40" y="53" width="1" height="1" fill="#4F6367"/>
<rect x="42" y="52" width="1" height="1" fill="#4F6367"/>
<rect x="41" y="52" width="1" height="1" fill="#4F6367"/>
<path d="M14 68H17V65H19V64H21V63H22V64H23V70H24V71H23V74H26V72H27V71H28V70H29V69H30V68H31V66H32V65H33V64H36V65H37V66H38V68H39V69H40V70H41V71H43V74H46V71H45V70H46V64H47V63H48V64H50V65H52V68H54V65H53V64H54V63H55V59H54V57H53V56H51V55H49V54H47V53H42V54H41V55H40V56H29V55H28V54H27V53H23V54H20V55H18V56H16V57H15V59H14V64H15V65H14V68Z" fill="#009CFD"/>
<path d="M15 63H14V64H15V65H16V66H17V65H19V64H21V62H20V61H19V60H16V61H15V63Z" fill="#008BE3"/>
<path d="M26 71H25V72H27V71H28V70H29V69H30V68H31V66H32V65H33V64H36V65H37V66H38V68H39V69H40V70H41V71H43V69H42V66H41V64H40V63H39V62H38V61H36V60H32V61H30V62H29V63H28V65H27V69H26V71Z" fill="#008BE3"/>
<path d="M43 71H44V72H43V71Z" fill="#008BE3"/>
<path d="M48 62V64H50V65H53V64H54V61H53V60H50V61H49V62H48Z" fill="#008BE3"/>
<path d="M27 53H28V54H27V53Z" fill="#008BE3"/>
<path d="M28 54H32V55H28V54Z" fill="#008BE3"/>
<path d="M30 55H39V56H30V55Z" fill="#008BE3"/>
<path d="M37 54H41V55H37V54Z" fill="#008BE3"/>
<path d="M41 53H42V54H41V53Z" fill="#008BE3"/>
<path d="M52 65V68H54V65H52Z" fill="#4F6367"/>
<path d="M44 72H43V74H46V71H44V72Z" fill="#FD5F55"/>
<path d="M25 72H26V74H23V71H25V72Z" fill="#4F6367"/>
<path d="M16 66H17V68H14V65H16V66Z" fill="#FD5F55"/>
<path d="M46 53H47V54H46V53Z" fill="#81CEFD"/>
<path d="M48 54H49V55H48V54Z" fill="#81CEFD"/>
<path d="M50 55H51V56H50V55Z" fill="#81CEFD"/>
<path d="M52 56H53V57H52V56Z" fill="#81CEFD"/>
<path d="M53 60H54V61H53V60Z" fill="#81CEFD"/>
<path d="M54 61H55V63H54V61Z" fill="#81CEFD"/>
<path d="M46 64H47V63H48V62H49V61H50V60H53V59H52V58H51V57H49V56H47V55H45V54H41V55H39V57H41V58H42V59H43V60H44V62H45V63H46V64Z" fill="#81CEFD"/>
<path d="M27 63H28V65H27V63Z" fill="#81CEFD"/>
<path d="M28 62H29V63H28V62Z" fill="#81CEFD"/>
<path d="M29 62H30V61H32V60H36V61H38V62H39V63H40V64H41V66H42V63H41V61H40V59H39V58H38V57H37V56H33V57H32V58H31V59H30V60H29V62Z" fill="#81CEFD"/>
<path d="M17 59V60H19V61H20V62H21V63H22V64H23V63H24V62H25V60H26V59H27V58H28V57H30V55H28V54H26V55H23V56H21V57H20V58H18V59H17Z" fill="#81CEFD"/>
<path d="M41 55H43V56H41V55Z" fill="#E5F1FF"/>
<path d="M44 56H45V57H44V56Z" fill="#E5F1FF"/>
<path d="M46 57H47V58H46V57Z" fill="#E5F1FF"/>
<path d="M47 58H48V59H47V58Z" fill="#E5F1FF"/>
<path d="M48 59H49V60H48V59Z" fill="#E5F1FF"/>
<path d="M34 56H35V57H34V56Z" fill="#E5F1FF"/>
<path d="M35 57H36V59H35V57Z" fill="#E5F1FF"/>
<path d="M36 59H37V61H36V59Z" fill="#E5F1FF"/>
<path d="M20 62H21V63H20V62Z" fill="#E5F1FF"/>
<path d="M21 60H22V61H21V60Z" fill="#E5F1FF"/>
<path d="M22 59H23V60H22V59Z" fill="#E5F1FF"/>
<path d="M23 58H24V59H23V58Z" fill="#E5F1FF"/>
<path d="M24 57H25V58H24V57Z" fill="#E5F1FF"/>
<path d="M25 56H27V57H25V56Z" fill="#E5F1FF"/>
<path d="M27 55H28V56H27V55Z" fill="#E5F1FF"/>
<path d="M23 43H24V44H23V43Z" fill="#4F6367"/>
<path d="M22 44H23V45H22V44Z" fill="#4F6367"/>
<path d="M22 45H23V46H22V45Z" fill="#4F6367"/>
<path d="M22 46H23V47H22V46Z" fill="#4F6367"/>
<path d="M23 47H24V48H23V47Z" fill="#4F6367"/>
<path d="M24 48H25V49H24V48Z" fill="#4F6367"/>
<path d="M25 49H26V50H25V49Z" fill="#4F6367"/>
<path d="M25 50H26V51H25V50Z" fill="#4F6367"/>
<path d="M26 51H27V52H26V51Z" fill="#4F6367"/>
<path d="M42 51H43V52H42V51Z" fill="#4F6367"/>
<path d="M43 50H44V51H43V50Z" fill="#4F6367"/>
<path d="M43 49H44V50H43V49Z" fill="#4F6367"/>
<path d="M44 48H45V49H44V48Z" fill="#4F6367"/>
<path d="M45 47H46V48H45V47Z" fill="#4F6367"/>
<path d="M46 46H47V47H46V46Z" fill="#4F6367"/>
<path d="M46 45H47V46H46V45Z" fill="#4F6367"/>
<path d="M46 44H47V45H46V44Z" fill="#4F6367"/>
<path d="M45 43H46V44H45V43Z" fill="#4F6367"/>
<path d="M24 42H25V35V33H26V32V31H27V30H28V29H30V28H39V29H41V30H42V31H43V33H44V40V42H45V44H46V47H45V48H44V49H43V51H42V52H43V53H42V54H41V55H39V56H30V55H28V54H27V53H26V52H27V51H26V49H25V48H24V47H23V44H24V42Z" fill="white"/>
<path d="M30 29V30H28V31H27V44H26V48H27V50H28V51H29V52H30V53H29V54H31V55H38V54H40V53H42V52H43V53H42V54H41V55H39V56H30V55H28V54H27V53H26V52H27V51H26V49H25V48H24V47H23V44H24V42H25V33H26V31H27V30H28V29H30V28H31V29H30Z" fill="#DCDCDC"/>
<rect x="23" y="42" width="1" height="1" fill="#4F6367"/>
<rect x="24" y="41" width="1" height="1" fill="#4F6367"/>
<rect x="24" y="40" width="1" height="1" fill="#4F6367"/>
<rect x="24" y="39" width="1" height="1" fill="#4F6367"/>
<rect x="24" y="38" width="1" height="1" fill="#4F6367"/>
<rect x="24" y="37" width="1" height="1" fill="#4F6367"/>
<rect x="24" y="36" width="1" height="1" fill="#4F6367"/>
<rect x="24" y="35" width="1" height="1" fill="#4F6367"/>
<rect x="24" y="34" width="1" height="1" fill="#4F6367"/>
<rect x="24" y="33" width="1" height="1" fill="#4F6367"/>
<rect x="25" y="32" width="1" height="1" fill="#4F6367"/>
<rect x="25" y="31" width="1" height="1" fill="#4F6367"/>
<rect x="26" y="30" width="1" height="1" fill="#4F6367"/>
<rect x="27" y="29" width="1" height="1" fill="#4F6367"/>
<rect x="28" y="28" width="1" height="1" fill="#4F6367"/>
<rect x="29" y="28" width="1" height="1" fill="#4F6367"/>
<rect x="30" y="27" width="1" height="1" fill="#4F6367"/>
<rect x="31" y="27" width="1" height="1" fill="#4F6367"/>
<rect x="32" y="27" width="1" height="1" fill="#4F6367"/>
<rect x="33" y="27" width="1" height="1" fill="#4F6367"/>
<rect x="34" y="27" width="1" height="1" fill="#4F6367"/>
<rect x="35" y="27" width="1" height="1" fill="#4F6367"/>
<rect x="36" y="27" width="1" height="1" fill="#4F6367"/>
<rect x="37" y="27" width="1" height="1" fill="#4F6367"/>
<rect x="38" y="27" width="1" height="1" fill="#4F6367"/>
<rect x="39" y="28" width="1" height="1" fill="#4F6367"/>
<rect x="40" y="28" width="1" height="1" fill="#4F6367"/>
<rect x="41" y="29" width="1" height="1" fill="#4F6367"/>
<rect x="42" y="30" width="1" height="1" fill="#4F6367"/>
<rect x="43" y="31" width="1" height="1" fill="#4F6367"/>
<rect x="43" y="32" width="1" height="1" fill="#4F6367"/>
<rect x="44" y="33" width="1" height="1" fill="#4F6367"/>
<rect x="44" y="34" width="1" height="1" fill="#4F6367"/>
<rect x="44" y="35" width="1" height="1" fill="#4F6367"/>
<rect x="44" y="36" width="1" height="1" fill="#4F6367"/>
<rect x="44" y="37" width="1" height="1" fill="#4F6367"/>
<rect x="44" y="38" width="1" height="1" fill="#4F6367"/>
<rect x="44" y="39" width="1" height="1" fill="#4F6367"/>
<rect x="44" y="40" width="1" height="1" fill="#4F6367"/>
<rect x="44" y="41" width="1" height="1" fill="#4F6367"/>
<rect x="45" y="42" width="1" height="1" fill="#4F6367"/>
<path d="M23 43H24V44H23V43Z" fill="#4F6367"/>
<path d="M22 44H23V45H22V44Z" fill="#4F6367"/>
<path d="M22 45H23V46H22V45Z" fill="#4F6367"/>
<path d="M22 46H23V47H22V46Z" fill="#4F6367"/>
<path d="M23 47H24V48H23V47Z" fill="#4F6367"/>
<path d="M24 48H25V49H24V48Z" fill="#4F6367"/>
<path d="M25 49H26V50H25V49Z" fill="#4F6367"/>
<path d="M25 50H26V51H25V50Z" fill="#4F6367"/>
<path d="M26 51H27V52H26V51Z" fill="#4F6367"/>
<path d="M42 51H43V52H42V51Z" fill="#4F6367"/>
<path d="M43 50H44V51H43V50Z" fill="#4F6367"/>
<path d="M43 49H44V50H43V49Z" fill="#4F6367"/>
<path d="M44 48H45V49H44V48Z" fill="#4F6367"/>
<path d="M45 47H46V48H45V47Z" fill="#4F6367"/>
<path d="M46 46H47V47H46V46Z" fill="#4F6367"/>
<path d="M46 45H47V46H46V45Z" fill="#4F6367"/>
<path d="M46 44H47V45H46V44Z" fill="#4F6367"/>
<path d="M45 43H46V44H45V43Z" fill="#4F6367"/>
<path d="M30 29V30H28V31H27V44H26V48H27V50H28V51H29V52H30V53H29V54H31V55H38V54H40V53H42V52H43V53H42V54H41V55H39V56H30V55H28V54H27V53H26V52H27V51H26V49H25V48H24V47H23V44H24V43H25V33H26V31H27V30H28V29H30V28H31V29H30Z" fill="#DCDCDC"/>
<path d="M28 41H32V42H28V41Z" fill="#FDA200"/>
<path d="M26 38H29V40H26V38Z" fill="#FDA200"/>
<path d="M27 37H30V38H27V37Z" fill="#FDA200"/>
<path d="M29 38H32V39H29V38Z" fill="#FDA200"/>
<path d="M31 39H33V40H31V39Z" fill="#FDA200"/>
<path d="M32 40H33V41H32V40Z" fill="#FDA200"/>
<path d="M27 40H28V41H27V40Z" fill="#FDA200"/>
<path d="M41 41H37V42H41V41Z" fill="#FDA200"/>
<path d="M43 38H40V40H43V38Z" fill="#FDA200"/>
<path d="M42 37H39V38H42V37Z" fill="#FDA200"/>
<path d="M40 38H37V39H40V38Z" fill="#FDA200"/>
<path d="M38 39H36V40H38V39Z" fill="#FDA200"/>
<path d="M37 40H36V41H37V40Z" fill="#FDA200"/>
<path d="M42 40H41V41H42V40Z" fill="#FDA200"/>
<path d="M28 39H32V41H28V39Z" fill="white"/>
<path d="M37 39H41V41H37V39Z" fill="white"/>
<rect x="29" y="40" width="2" height="1" fill="#4F6367"/>
<rect x="38" y="40" width="2" height="1" fill="#4F6367"/>
<path d="M32 43H33V44H32V43Z" fill="#DCDCDC"/>
<path d="M33 44H36V45H33V44Z" fill="#DCDCDC"/>
<path d="M36 43H37V44H36V43Z" fill="#DCDCDC"/>
<path d="M26 47V44H27V45H30V46H39V45H42V44H43V47H42V48H41V50H40V51H39V52H37V53H32V52H30V51H29V50H28V48H27V47H26Z" fill="#FD5F55"/>
<path d="M31 49V48H38V49H37V50H32V49H31Z" fill="white"/>
<path d="M14 35H15V38H14V35Z" fill="#4F6367"/>
<path d="M15 38H16V39H15V38Z" fill="#4F6367"/>
<path d="M16 39H18V40H16V39Z" fill="#4F6367"/>
<path d="M18 38H19V39H18V38Z" fill="#4F6367"/>
<path d="M19 35H20V38H19V35Z" fill="#4F6367"/>
<path d="M23 33H24V37H23V33Z" fill="#4F6367"/>
<path d="M45 33H46V37H45V33Z" fill="#4F6367"/>
<path d="M49 35H50V38H49V35Z" fill="#4F6367"/>
<path d="M54 35H55V38H54V35Z" fill="#4F6367"/>
<path d="M15 31H16V35H15V31Z" fill="#4F6367"/>
<path d="M16 29H17V31H16V29Z" fill="#4F6367"/>
<path d="M17 27H18V29H17V27Z" fill="#4F6367"/>
<path d="M18 26H20V27H18V26Z" fill="#4F6367"/>
<path d="M20 25H26V26H20V25Z" fill="#4F6367"/>
<path d="M26 26H28V27H26V26Z" fill="#4F6367"/>
<path d="M27 25H28V26H27V25Z" fill="#4F6367"/>
<path d="M28 23H29V25H28V23Z" fill="#4F6367"/>
<path d="M29 21H30V23H29V21Z" fill="#4F6367"/>
<path d="M30 19H31V21H30V19Z" fill="#4F6367"/>
<path d="M31 18H32V19H31V18Z" fill="#4F6367"/>
<path d="M32 17H33V18H32V17Z" fill="#4F6367"/>
<path d="M33 16H34V17H33V16Z" fill="#4F6367"/>
<path d="M34 15H36V16H34V15Z" fill="#4F6367"/>
<path d="M36 14H41V15H36V14Z" fill="#4F6367"/>
<path d="M41 15H42V16H41V15Z" fill="#4F6367"/>
<path d="M42 16H43V17H42V16Z" fill="#4F6367"/>
<path d="M43 17H44V19H43V17Z" fill="#4F6367"/>
<path d="M40 18H43V19H40V18Z" fill="#4F6367"/>
<path d="M39 19H40V23H39V19Z" fill="#4F6367"/>
<path d="M40 22H41V25H40V22Z" fill="#4F6367"/>
<path d="M41 23H43V24H41V23Z" fill="#4F6367"/>
<path d="M43 22H44V23H43V22Z" fill="#4F6367"/>
<path d="M44 19H45V22H44V19Z" fill="#4F6367"/>
<path d="M41 25H42V27H41V25Z" fill="#4F6367"/>
<path d="M42 26H43V27H42V26Z" fill="#4F6367"/>
<path d="M43 25H49V26H43V25Z" fill="#4F6367"/>
<path d="M49 26H51V27H49V26Z" fill="#4F6367"/>
<path d="M51 27H52V29H51V27Z" fill="#4F6367"/>
<path d="M52 29H53V31H52V29Z" fill="#4F6367"/>
<path d="M53 31H54V35H53V31Z" fill="#4F6367"/>
<path d="M53 38H54V39H53V38Z" fill="#4F6367"/>
<path d="M51 39H53V40H51V39Z" fill="#4F6367"/>
<path d="M50 38H51V39H50V38Z" fill="#4F6367"/>
<path d="M50 34H51V35H50V34Z" fill="#4F6367"/>
<path d="M48 32H50V33H48V32Z" fill="#4F6367"/>
<path d="M49 33H50V34H49V33Z" fill="#4F6367"/>
<path d="M47 31H48V32H47V31Z" fill="#4F6367"/>
<path d="M46 32H47V33H46V32Z" fill="#4F6367"/>
<path d="M18 34H19V35H18V34Z" fill="#4F6367"/>
<path d="M19 32H20V33H19V32Z" fill="#4F6367"/>
<path d="M19 33H20V34H19V33Z" fill="#4F6367"/>
<path d="M20 32H21V33H20V32Z" fill="#4F6367"/>
<path d="M21 31H22V32H21V31Z" fill="#4F6367"/>
<path d="M22 32H23V33H22V32Z" fill="#4F6367"/>
<path d="M22 37H23V42H22V37Z" fill="#4F6367"/>
<path d="M46 37H47V42H46V37Z" fill="#4F6367"/>
<path d="M45 42H46V44H45V42Z" fill="#4F6367"/>
<path d="M23 42H24V44H23V42Z" fill="#4F6367"/>
<path d="M15 38V35H17V36H18V35H19V38H18V39H16V38H15Z" fill="white"/>
<path d="M40 22V19H44V22H43V23H41V22H40Z" fill="white"/>
<path d="M54 38V35H52V36H51V35H50V38H51V39H53V38H54Z" fill="white"/>
<path d="M53 35V31H52V29H51V27H49V26H43V27H41V28H42V30H43V33H44V35H45V33H46V32H47V31H48V32H50V34H51V36H52V35H53Z" fill="#FDA200"/>
<path d="M23 42V37H24V35H25V33H26V30H27V28H28V25H29V23H30V21H31V19H32V18H33V17H34V16H36V15H41V16H42V17H43V18H40V19H39V23H40V25H41V28H42V30H43V33H44V35H45V37H46V42H45V43H44V40H43V38H42V37H41V36H40V35H37V34H32V35H29V36H28V37H27V38H26V40H25V43H24V42H23Z" fill="#FD5F55"/>
<path d="M16 35V31H17V29H18V27H20V26H26V27H28V28H27V30H26V33H25V35H24V33H23V32H22V31H21V32H19V34H18V36H17V35H16Z" fill="#FDA200"/>
<path d="M61 86V87H57V85H58V80H59V79H63V80H64V82H62V81H61V80H60V85H62V86H61Z" fill="#4F6367"/>
<path fill-rule="evenodd" clip-rule="evenodd" d="M62 78H59V77H58V76H57V72H58V71H59V70H62V71H63V72H64V76H63V77H62V78ZM60 77H61V76H62V72H61V71H60V72H59V76H60V77Z" fill="#4F6367"/>
<path d="M64 68V69H60V68H61V66H60V67H59V69H56V68H57V67H58V66H59V65H58V64H57V61H59V64H61V62H60V61H64V62H63V68H64Z" fill="#4F6367"/>
<path d="M64 59V60H57V58H59V59H61V57H58V56H61V53H59V54H57V52H64V53H63V59H64Z" fill="#4F6367"/>
<path fill-rule="evenodd" clip-rule="evenodd" d="M58 51H64V50H63V44H64V43H61V46H60V45H59V43H57V45H58V47H57V50H58V51ZM61 47H59V48H58V49H59V50H61V47Z" fill="#4F6367"/>
<path d="M8 7V6H12V8H11V13H10V14H6V13H5V11H7V12H8V13H9V8H7V7H8Z" fill="#4F6367"/>
<path fill-rule="evenodd" clip-rule="evenodd" d="M7 15H10V16H11V17H12V21H11V22H10V23H7V22H6V21H5V17H6V16H7V15ZM9 16H8V17H7V21H8V22H9V21H10V17H9V16Z" fill="#4F6367"/>
<path d="M5 25V24H9V25H8V27H9V26H10V24H13V25H12V26H11V27H10V28H11V29H12V31H13V32H10V29H8V31H9V32H5V31H6V25H5Z" fill="#4F6367"/>
<path d="M5 34V33H12V35H10V34H8V36H11V37H8V40H10V39H12V41H5V40H6V34H5Z" fill="#4F6367"/>
<path fill-rule="evenodd" clip-rule="evenodd" d="M11 42H5V43H6V49H5V50H8V47H9V48H10V50H12V48H11V46H12V43H11V42ZM8 46H10V45H11V44H10V43H8V46Z" fill="#4F6367"/>
<defs>
<filter id="filter0_d_10_38745" x="0" y="0" width="69" height="95" filterUnits="userSpaceOnUse" color-interpolation-filters="sRGB">
<feFlood flood-opacity="0" result="BackgroundImageFix"/>
<feColorMatrix in="SourceAlpha" type="matrix" values="0 0 0 0 0 0 0 0 0 0 0 0 0 0 0 0 0 0 127 0" result="hardAlpha"/>
<feOffset dy="2"/>
<feComposite in2="hardAlpha" operator="out"/>
<feColorMatrix type="matrix" values="0 0 0 0 0 0 0 0 0 0 0 0 0 0 0 0 0 0 0.4 0"/>
<feBlend mode="normal" in2="BackgroundImageFix" result="effect1_dropShadow_10_38745"/>
<feBlend mode="normal" in="SourceGraphic" in2="effect1_dropShadow_10_38745" result="shape"/>
</filter>
</defs>
</svg>
