<svg width="719" height="145" viewBox="0 0 719 145" fill="none" xmlns="http://www.w3.org/2000/svg">
<g filter="url(#filter0_d_815_3)">
<mask id="path-1-outside-1_815_3" maskUnits="userSpaceOnUse" x="3" y="1" width="708" height="134" fill="black">
<rect fill="white" x="3" y="1" width="708" height="134"/>
<path d="M19.25 130H8V118.75V107.5V96.25V85V73.75V62.5V51.25V40V28.75V17.5V6.25H19.25H30.5H41.75H53H64.25V17.5H75.5V28.75V40V51.25V62.5V73.75H64.25V85H53H41.75H30.5V96.25V107.5V118.75V130H19.25ZM41.75 62.5H53V51.25V40V28.75H41.75H30.5V40V51.25V62.5H41.75ZM131.75 130H120.5H109.25H98V118.75H86.75V107.5V96.25V85V73.75V62.5V51.25V40V28.75V17.5H98V6.25H109.25H120.5H131.75H143V17.5H154.25V28.75V40V51.25V62.5V73.75V85V96.25V107.5V118.75H143V130H131.75ZM120.5 107.5H131.75V96.25V85V73.75V62.5V51.25V40V28.75H120.5H109.25V40V51.25V62.5V73.75V85V96.25V107.5H120.5ZM221.75 130H210.5V118.75V107.5V96.25V85H199.25V73.75H188V85V96.25V107.5V118.75V130H176.75H165.5V118.75V107.5V96.25V85V73.75V62.5V51.25V40V28.75V17.5V6.25H176.75H188H199.25H210.5H221.75V17.5H233V28.75V40V51.25V62.5H221.75V73.75H233V85V96.25V107.5V118.75V130H221.75ZM199.25 51.25H210.5V40V28.75H199.25H188V40V51.25H199.25ZM278 130H266.75V118.75V107.5V96.25V85V73.75V62.5V51.25V40V28.75H255.5H244.25V17.5V6.25H255.5H266.75H278H289.25H300.5H311.75V17.5V28.75H300.5H289.25V40V51.25V62.5V73.75V85V96.25V107.5V118.75V130H278ZM334.25 130H323V118.75V107.5V96.25V85V73.75V62.5V51.25V40V28.75V17.5H334.25V6.25H345.5H356.75H368H379.25H390.5V17.5V28.75H379.25H368H356.75H345.5V40V51.25H356.75H368H379.25V62.5V73.75H368H356.75H345.5V85V96.25V107.5V118.75V130H334.25ZM446.75 130H435.5H424.25H413V118.75H401.75V107.5V96.25V85V73.75V62.5V51.25V40V28.75V17.5H413V6.25H424.25H435.5H446.75H458V17.5H469.25V28.75V40V51.25V62.5V73.75V85V96.25V107.5V118.75H458V130H446.75ZM435.5 107.5H446.75V96.25V85V73.75V62.5V51.25V40V28.75H435.5H424.25V40V51.25V62.5V73.75V85V96.25V107.5H435.5ZM536.75 130H525.5H514.25H503H491.75V118.75H480.5V107.5V96.25V85V73.75V62.5V51.25V40V28.75V17.5V6.25H491.75H503V17.5V28.75V40V51.25V62.5V73.75V85V96.25V107.5H514.25H525.5H536.75H548V118.75V130H536.75ZM615.5 130H604.25H593H581.75H570.5H559.25V118.75V107.5H570.5H581.75V96.25V85V73.75V62.5V51.25V40V28.75H570.5H559.25V17.5V6.25H570.5H581.75H593H604.25H615.5H626.75V17.5V28.75H615.5H604.25V40V51.25V62.5V73.75V85V96.25V107.5H615.5H626.75V118.75V130H615.5ZM683 130H671.75H660.5H649.25V118.75H638V107.5V96.25V85V73.75V62.5V51.25V40V28.75V17.5H649.25V6.25H660.5H671.75H683H694.25V17.5H705.5V28.75V40V51.25V62.5V73.75V85V96.25V107.5V118.75H694.25V130H683ZM671.75 107.5H683V96.25V85V73.75V62.5V51.25V40V28.75H671.75H660.5V40V51.25V62.5V73.75V85V96.25V107.5H671.75Z"/>
</mask>
<path d="M19.25 130H8V118.75V107.5V96.25V85V73.75V62.5V51.25V40V28.75V17.5V6.25H19.25H30.5H41.75H53H64.25V17.5H75.5V28.75V40V51.25V62.5V73.75H64.25V85H53H41.75H30.5V96.25V107.5V118.75V130H19.25ZM41.75 62.5H53V51.25V40V28.75H41.75H30.5V40V51.25V62.5H41.75ZM131.75 130H120.5H109.25H98V118.75H86.75V107.5V96.25V85V73.75V62.5V51.25V40V28.75V17.5H98V6.25H109.25H120.5H131.75H143V17.5H154.25V28.75V40V51.25V62.5V73.75V85V96.25V107.5V118.75H143V130H131.75ZM120.5 107.5H131.75V96.25V85V73.75V62.5V51.25V40V28.75H120.5H109.25V40V51.25V62.5V73.75V85V96.25V107.5H120.5ZM221.75 130H210.5V118.75V107.5V96.25V85H199.25V73.75H188V85V96.25V107.5V118.75V130H176.75H165.5V118.75V107.5V96.25V85V73.75V62.5V51.25V40V28.75V17.5V6.25H176.75H188H199.25H210.5H221.75V17.5H233V28.75V40V51.25V62.5H221.75V73.75H233V85V96.25V107.5V118.75V130H221.75ZM199.25 51.25H210.5V40V28.75H199.25H188V40V51.25H199.25ZM278 130H266.75V118.75V107.5V96.25V85V73.75V62.5V51.25V40V28.75H255.5H244.25V17.5V6.25H255.5H266.75H278H289.25H300.5H311.75V17.5V28.75H300.5H289.25V40V51.25V62.5V73.75V85V96.25V107.5V118.75V130H278ZM334.25 130H323V118.75V107.5V96.25V85V73.75V62.5V51.25V40V28.75V17.5H334.25V6.25H345.5H356.75H368H379.25H390.5V17.5V28.75H379.25H368H356.75H345.5V40V51.25H356.75H368H379.25V62.5V73.75H368H356.75H345.5V85V96.25V107.5V118.75V130H334.25ZM446.75 130H435.5H424.25H413V118.75H401.75V107.5V96.25V85V73.75V62.5V51.25V40V28.75V17.5H413V6.25H424.25H435.5H446.75H458V17.5H469.25V28.75V40V51.25V62.5V73.75V85V96.25V107.5V118.75H458V130H446.75ZM435.5 107.5H446.75V96.25V85V73.75V62.5V51.25V40V28.75H435.5H424.25V40V51.25V62.5V73.75V85V96.25V107.5H435.5ZM536.75 130H525.5H514.25H503H491.75V118.75H480.5V107.5V96.25V85V73.75V62.5V51.25V40V28.75V17.5V6.25H491.75H503V17.5V28.75V40V51.25V62.5V73.75V85V96.25V107.5H514.25H525.5H536.75H548V118.75V130H536.75ZM615.5 130H604.25H593H581.75H570.5H559.25V118.75V107.5H570.5H581.75V96.25V85V73.75V62.5V51.25V40V28.75H570.5H559.25V17.5V6.25H570.5H581.75H593H604.25H615.5H626.75V17.5V28.75H615.5H604.25V40V51.25V62.5V73.75V85V96.25V107.5H615.5H626.75V118.75V130H615.5ZM683 130H671.75H660.5H649.25V118.75H638V107.5V96.25V85V73.75V62.5V51.25V40V28.75V17.5H649.25V6.25H660.5H671.75H683H694.25V17.5H705.5V28.75V40V51.25V62.5V73.75V85V96.25V107.5V118.75H694.25V130H683ZM671.75 107.5H683V96.25V85V73.75V62.5V51.25V40V28.75H671.75H660.5V40V51.25V62.5V73.75V85V96.25V107.5H671.75Z" fill="white"/>
<path d="M8 130H3V135H8V130ZM8 6.25V1.25H3V6.25H8ZM64.25 6.25H69.25V1.25H64.25V6.25ZM64.25 17.5H59.25V22.5H64.25V17.5ZM75.5 17.5H80.5V12.5H75.5V17.5ZM75.5 73.75V78.75H80.5V73.75H75.5ZM64.25 73.75V68.75H59.25V73.75H64.25ZM64.25 85V90H69.25V85H64.25ZM30.5 85V80H25.5V85H30.5ZM30.5 130V135H35.5V130H30.5ZM53 62.5V67.5H58V62.5H53ZM53 28.75H58V23.75H53V28.75ZM30.5 28.75V23.75H25.5V28.75H30.5ZM30.5 62.5H25.5V67.5H30.5V62.5ZM19.25 130V125H8V130V135H19.25V130ZM8 130H13V118.75H8H3V130H8ZM8 118.75H13V107.5H8H3V118.75H8ZM8 107.5H13V96.25H8H3V107.5H8ZM8 96.25H13V85H8H3V96.25H8ZM8 85H13V73.75H8H3V85H8ZM8 73.75H13V62.5H8H3V73.75H8ZM8 62.5H13V51.25H8H3V62.5H8ZM8 51.25H13V40H8H3V51.25H8ZM8 40H13V28.75H8H3V40H8ZM8 28.75H13V17.5H8H3V28.75H8ZM8 17.5H13V6.25H8H3V17.5H8ZM8 6.25V11.25H19.25V6.25V1.25H8V6.25ZM19.25 6.25V11.25H30.5V6.25V1.25H19.25V6.25ZM30.5 6.25V11.25H41.75V6.25V1.25H30.5V6.25ZM41.75 6.25V11.25H53V6.25V1.25H41.75V6.25ZM53 6.25V11.25H64.25V6.25V1.25H53V6.25ZM64.25 6.25H59.25V17.5H64.25H69.25V6.25H64.25ZM64.25 17.5V22.5H75.5V17.5V12.5H64.25V17.5ZM75.5 17.5H70.5V28.75H75.5H80.5V17.5H75.5ZM75.5 28.75H70.5V40H75.5H80.5V28.75H75.5ZM75.5 40H70.5V51.25H75.5H80.5V40H75.5ZM75.5 51.25H70.5V62.5H75.5H80.5V51.25H75.5ZM75.5 62.5H70.5V73.75H75.5H80.5V62.5H75.5ZM75.5 73.75V68.75H64.25V73.75V78.75H75.5V73.75ZM64.25 73.75H59.25V85H64.25H69.25V73.75H64.25ZM64.25 85V80H53V85V90H64.25V85ZM53 85V80H41.75V85V90H53V85ZM41.75 85V80H30.5V85V90H41.75V85ZM30.5 85H25.5V96.25H30.5H35.5V85H30.5ZM30.5 96.25H25.5V107.5H30.5H35.5V96.25H30.5ZM30.5 107.5H25.5V118.75H30.5H35.5V107.5H30.5ZM30.5 118.75H25.5V130H30.5H35.5V118.75H30.5ZM30.5 130V125H19.25V130V135H30.5V130ZM41.75 62.5V67.5H53V62.5V57.5H41.75V62.5ZM53 62.5H58V51.25H53H48V62.5H53ZM53 51.25H58V40H53H48V51.25H53ZM53 40H58V28.75H53H48V40H53ZM53 28.75V23.75H41.75V28.75V33.75H53V28.75ZM41.75 28.75V23.75H30.5V28.75V33.75H41.75V28.75ZM30.5 28.75H25.5V40H30.5H35.5V28.75H30.5ZM30.5 40H25.5V51.25H30.5H35.5V40H30.5ZM30.5 51.25H25.5V62.5H30.5H35.5V51.25H30.5ZM30.5 62.5V67.5H41.75V62.5V57.5H30.5V62.5ZM98 130H93V135H98V130ZM98 118.75H103V113.75H98V118.75ZM86.75 118.75H81.75V123.75H86.75V118.75ZM86.75 17.5V12.5H81.75V17.5H86.75ZM98 17.5V22.5H103V17.5H98ZM98 6.25V1.25H93V6.25H98ZM143 6.25H148V1.25H143V6.25ZM143 17.5H138V22.5H143V17.5ZM154.25 17.5H159.25V12.5H154.25V17.5ZM154.25 118.75V123.75H159.25V118.75H154.25ZM143 118.75V113.75H138V118.75H143ZM143 130V135H148V130H143ZM131.75 107.5V112.5H136.75V107.5H131.75ZM131.75 28.75H136.75V23.75H131.75V28.75ZM109.25 28.75V23.75H104.25V28.75H109.25ZM109.25 107.5H104.25V112.5H109.25V107.5ZM131.75 130V125H120.5V130V135H131.75V130ZM120.5 130V125H109.25V130V135H120.5V130ZM109.25 130V125H98V130V135H109.25V130ZM98 130H103V118.75H98H93V130H98ZM98 118.75V113.75H86.75V118.75V123.75H98V118.75ZM86.75 118.75H91.75V107.5H86.75H81.75V118.75H86.75ZM86.75 107.5H91.75V96.25H86.75H81.75V107.5H86.75ZM86.75 96.25H91.75V85H86.75H81.75V96.25H86.75ZM86.75 85H91.75V73.75H86.75H81.75V85H86.75ZM86.75 73.75H91.75V62.5H86.75H81.75V73.75H86.75ZM86.75 62.5H91.75V51.25H86.75H81.75V62.5H86.75ZM86.75 51.25H91.75V40H86.75H81.75V51.25H86.75ZM86.75 40H91.75V28.75H86.75H81.75V40H86.75ZM86.75 28.75H91.75V17.5H86.75H81.75V28.75H86.75ZM86.75 17.5V22.5H98V17.5V12.5H86.75V17.5ZM98 17.5H103V6.25H98H93V17.5H98ZM98 6.25V11.25H109.25V6.25V1.25H98V6.25ZM109.25 6.25V11.25H120.5V6.25V1.25H109.25V6.25ZM120.5 6.25V11.25H131.75V6.25V1.25H120.5V6.25ZM131.75 6.25V11.25H143V6.25V1.25H131.75V6.25ZM143 6.25H138V17.5H143H148V6.25H143ZM143 17.5V22.5H154.25V17.5V12.5H143V17.5ZM154.25 17.5H149.25V28.75H154.25H159.25V17.5H154.25ZM154.25 28.75H149.25V40H154.25H159.25V28.75H154.25ZM154.25 40H149.25V51.25H154.25H159.25V40H154.25ZM154.25 51.25H149.25V62.5H154.25H159.25V51.25H154.25ZM154.25 62.5H149.25V73.75H154.25H159.25V62.5H154.25ZM154.25 73.75H149.25V85H154.25H159.25V73.75H154.25ZM154.25 85H149.25V96.25H154.25H159.25V85H154.25ZM154.25 96.25H149.25V107.5H154.25H159.25V96.25H154.25ZM154.25 107.5H149.25V118.75H154.25H159.25V107.5H154.25ZM154.25 118.75V113.75H143V118.75V123.75H154.25V118.75ZM143 118.75H138V130H143H148V118.75H143ZM143 130V125H131.75V130V135H143V130ZM120.5 107.5V112.5H131.75V107.5V102.5H120.5V107.5ZM131.75 107.5H136.75V96.25H131.75H126.75V107.5H131.75ZM131.75 96.25H136.75V85H131.75H126.75V96.25H131.75ZM131.75 85H136.75V73.75H131.75H126.75V85H131.75ZM131.75 73.75H136.75V62.5H131.75H126.75V73.75H131.75ZM131.75 62.5H136.75V51.25H131.75H126.75V62.5H131.75ZM131.75 51.25H136.75V40H131.75H126.75V51.25H131.75ZM131.75 40H136.75V28.75H131.75H126.75V40H131.75ZM131.75 28.75V23.75H120.5V28.75V33.75H131.75V28.75ZM120.5 28.75V23.75H109.25V28.75V33.75H120.5V28.75ZM109.25 28.75H104.25V40H109.25H114.25V28.75H109.25ZM109.25 40H104.25V51.25H109.25H114.25V40H109.25ZM109.25 51.25H104.25V62.5H109.25H114.25V51.25H109.25ZM109.25 62.5H104.25V73.75H109.25H114.25V62.5H109.25ZM109.25 73.75H104.25V85H109.25H114.25V73.75H109.25ZM109.25 85H104.25V96.25H109.25H114.25V85H109.25ZM109.25 96.25H104.25V107.5H109.25H114.25V96.25H109.25ZM109.25 107.5V112.5H120.5V107.5V102.5H109.25V107.5ZM210.5 130H205.5V135H210.5V130ZM210.5 85H215.5V80H210.5V85ZM199.25 85H194.25V90H199.25V85ZM199.25 73.75H204.25V68.75H199.25V73.75ZM188 73.75V68.75H183V73.75H188ZM188 130V135H193V130H188ZM165.5 130H160.5V135H165.5V130ZM165.5 6.25V1.25H160.5V6.25H165.5ZM221.75 6.25H226.75V1.25H221.75V6.25ZM221.75 17.5H216.75V22.5H221.75V17.5ZM233 17.5H238V12.5H233V17.5ZM233 62.5V67.5H238V62.5H233ZM221.75 62.5V57.5H216.75V62.5H221.75ZM221.75 73.75H216.75V78.75H221.75V73.75ZM233 73.75H238V68.75H233V73.75ZM233 130V135H238V130H233ZM210.5 51.25V56.25H215.5V51.25H210.5ZM210.5 28.75H215.5V23.75H210.5V28.75ZM188 28.75V23.75H183V28.75H188ZM188 51.25H183V56.25H188V51.25ZM221.75 130V125H210.5V130V135H221.75V130ZM210.5 130H215.5V118.75H210.5H205.5V130H210.5ZM210.5 118.75H215.5V107.5H210.5H205.5V118.75H210.5ZM210.5 107.5H215.5V96.25H210.5H205.5V107.5H210.5ZM210.5 96.25H215.5V85H210.5H205.5V96.25H210.5ZM210.5 85V80H199.25V85V90H210.5V85ZM199.25 85H204.25V73.75H199.25H194.25V85H199.25ZM199.25 73.75V68.75H188V73.75V78.75H199.25V73.75ZM188 73.75H183V85H188H193V73.75H188ZM188 85H183V96.25H188H193V85H188ZM188 96.25H183V107.5H188H193V96.25H188ZM188 107.5H183V118.75H188H193V107.5H188ZM188 118.75H183V130H188H193V118.75H188ZM188 130V125H176.75V130V135H188V130ZM176.75 130V125H165.5V130V135H176.75V130ZM165.5 130H170.5V118.75H165.5H160.5V130H165.5ZM165.5 118.75H170.5V107.5H165.5H160.5V118.75H165.5ZM165.5 107.5H170.5V96.25H165.5H160.5V107.5H165.5ZM165.5 96.25H170.5V85H165.5H160.5V96.25H165.5ZM165.5 85H170.5V73.75H165.5H160.5V85H165.5ZM165.5 73.75H170.5V62.5H165.5H160.5V73.75H165.5ZM165.5 62.5H170.5V51.25H165.5H160.5V62.5H165.5ZM165.5 51.25H170.5V40H165.5H160.5V51.25H165.5ZM165.5 40H170.5V28.75H165.5H160.5V40H165.5ZM165.5 28.75H170.5V17.5H165.5H160.5V28.75H165.5ZM165.5 17.5H170.5V6.25H165.5H160.5V17.5H165.5ZM165.5 6.25V11.25H176.75V6.25V1.25H165.5V6.25ZM176.75 6.25V11.25H188V6.25V1.25H176.75V6.25ZM188 6.25V11.25H199.25V6.25V1.25H188V6.25ZM199.25 6.25V11.25H210.5V6.25V1.25H199.25V6.25ZM210.5 6.25V11.25H221.75V6.25V1.25H210.5V6.25ZM221.75 6.25H216.75V17.5H221.75H226.75V6.25H221.75ZM221.75 17.5V22.5H233V17.5V12.5H221.75V17.5ZM233 17.5H228V28.75H233H238V17.5H233ZM233 28.75H228V40H233H238V28.75H233ZM233 40H228V51.25H233H238V40H233ZM233 51.25H228V62.5H233H238V51.25H233ZM233 62.5V57.5H221.75V62.5V67.5H233V62.5ZM221.75 62.5H216.75V73.75H221.75H226.75V62.5H221.75ZM221.75 73.75V78.75H233V73.75V68.75H221.75V73.75ZM233 73.75H228V85H233H238V73.75H233ZM233 85H228V96.25H233H238V85H233ZM233 96.25H228V107.5H233H238V96.25H233ZM233 107.5H228V118.75H233H238V107.5H233ZM233 118.75H228V130H233H238V118.75H233ZM233 130V125H221.75V130V135H233V130ZM199.25 51.25V56.25H210.5V51.25V46.25H199.25V51.25ZM210.5 51.25H215.5V40H210.5H205.5V51.25H210.5ZM210.5 40H215.5V28.75H210.5H205.5V40H210.5ZM210.5 28.75V23.75H199.25V28.75V33.75H210.5V28.75ZM199.25 28.75V23.75H188V28.75V33.75H199.25V28.75ZM188 28.75H183V40H188H193V28.75H188ZM188 40H183V51.25H188H193V40H188ZM188 51.25V56.25H199.25V51.25V46.25H188V51.25ZM266.75 130H261.75V135H266.75V130ZM266.75 28.75H271.75V23.75H266.75V28.75ZM244.25 28.75H239.25V33.75H244.25V28.75ZM244.25 6.25V1.25H239.25V6.25H244.25ZM311.75 6.25H316.75V1.25H311.75V6.25ZM311.75 28.75V33.75H316.75V28.75H311.75ZM289.25 28.75V23.75H284.25V28.75H289.25ZM289.25 130V135H294.25V130H289.25ZM278 130V125H266.75V130V135H278V130ZM266.75 130H271.75V118.75H266.75H261.75V130H266.75ZM266.75 118.75H271.75V107.5H266.75H261.75V118.75H266.75ZM266.75 107.5H271.75V96.25H266.75H261.75V107.5H266.75ZM266.75 96.25H271.75V85H266.75H261.75V96.25H266.75ZM266.75 85H271.75V73.75H266.75H261.75V85H266.75ZM266.75 73.75H271.75V62.5H266.75H261.75V73.75H266.75ZM266.75 62.5H271.75V51.25H266.75H261.75V62.5H266.75ZM266.75 51.25H271.75V40H266.75H261.75V51.25H266.75ZM266.75 40H271.75V28.75H266.75H261.75V40H266.75ZM266.75 28.75V23.75H255.5V28.75V33.75H266.75V28.75ZM255.5 28.75V23.75H244.25V28.75V33.75H255.5V28.75ZM244.25 28.75H249.25V17.5H244.25H239.25V28.75H244.25ZM244.25 17.5H249.25V6.25H244.25H239.25V17.5H244.25ZM244.25 6.25V11.25H255.5V6.25V1.25H244.25V6.25ZM255.5 6.25V11.25H266.75V6.25V1.25H255.5V6.25ZM266.75 6.25V11.25H278V6.25V1.25H266.75V6.25ZM278 6.25V11.25H289.25V6.25V1.25H278V6.25ZM289.25 6.25V11.25H300.5V6.25V1.25H289.25V6.25ZM300.5 6.25V11.25H311.75V6.25V1.25H300.5V6.25ZM311.75 6.25H306.75V17.5H311.75H316.75V6.25H311.75ZM311.75 17.5H306.75V28.75H311.75H316.75V17.5H311.75ZM311.75 28.75V23.75H300.5V28.75V33.75H311.75V28.75ZM300.5 28.75V23.75H289.25V28.75V33.75H300.5V28.75ZM289.25 28.75H284.25V40H289.25H294.25V28.75H289.25ZM289.25 40H284.25V51.25H289.25H294.25V40H289.25ZM289.25 51.25H284.25V62.5H289.25H294.25V51.25H289.25ZM289.25 62.5H284.25V73.75H289.25H294.25V62.5H289.25ZM289.25 73.75H284.25V85H289.25H294.25V73.75H289.25ZM289.25 85H284.25V96.25H289.25H294.25V85H289.25ZM289.25 96.25H284.25V107.5H289.25H294.25V96.25H289.25ZM289.25 107.5H284.25V118.75H289.25H294.25V107.5H289.25ZM289.25 118.75H284.25V130H289.25H294.25V118.75H289.25ZM289.25 130V125H278V130V135H289.25V130ZM323 130H318V135H323V130ZM323 17.5V12.5H318V17.5H323ZM334.25 17.5V22.5H339.25V17.5H334.25ZM334.25 6.25V1.25H329.25V6.25H334.25ZM390.5 6.25H395.5V1.25H390.5V6.25ZM390.5 28.75V33.75H395.5V28.75H390.5ZM345.5 28.75V23.75H340.5V28.75H345.5ZM345.5 51.25H340.5V56.25H345.5V51.25ZM379.25 51.25H384.25V46.25H379.25V51.25ZM379.25 73.75V78.75H384.25V73.75H379.25ZM345.5 73.75V68.75H340.5V73.75H345.5ZM345.5 130V135H350.5V130H345.5ZM334.25 130V125H323V130V135H334.25V130ZM323 130H328V118.75H323H318V130H323ZM323 118.75H328V107.5H323H318V118.75H323ZM323 107.5H328V96.25H323H318V107.5H323ZM323 96.25H328V85H323H318V96.25H323ZM323 85H328V73.75H323H318V85H323ZM323 73.75H328V62.5H323H318V73.75H323ZM323 62.5H328V51.25H323H318V62.5H323ZM323 51.25H328V40H323H318V51.25H323ZM323 40H328V28.75H323H318V40H323ZM323 28.75H328V17.5H323H318V28.75H323ZM323 17.5V22.5H334.25V17.5V12.5H323V17.5ZM334.25 17.5H339.25V6.25H334.25H329.25V17.5H334.25ZM334.25 6.25V11.25H345.5V6.25V1.25H334.25V6.25ZM345.5 6.25V11.25H356.75V6.25V1.25H345.5V6.25ZM356.75 6.25V11.25H368V6.25V1.25H356.75V6.25ZM368 6.25V11.25H379.25V6.25V1.25H368V6.25ZM379.25 6.25V11.25H390.5V6.25V1.25H379.25V6.25ZM390.5 6.25H385.5V17.5H390.5H395.5V6.25H390.5ZM390.5 17.5H385.5V28.75H390.5H395.5V17.5H390.5ZM390.5 28.75V23.75H379.25V28.75V33.75H390.5V28.75ZM379.25 28.75V23.75H368V28.75V33.75H379.25V28.75ZM368 28.75V23.75H356.75V28.75V33.75H368V28.75ZM356.75 28.75V23.75H345.5V28.75V33.75H356.75V28.75ZM345.5 28.75H340.5V40H345.5H350.5V28.75H345.5ZM345.5 40H340.5V51.25H345.5H350.5V40H345.5ZM345.5 51.25V56.25H356.75V51.25V46.25H345.5V51.25ZM356.75 51.25V56.25H368V51.25V46.25H356.75V51.25ZM368 51.25V56.25H379.25V51.25V46.25H368V51.25ZM379.25 51.25H374.25V62.5H379.25H384.25V51.25H379.25ZM379.25 62.5H374.25V73.75H379.25H384.25V62.5H379.25ZM379.25 73.75V68.75H368V73.75V78.75H379.25V73.75ZM368 73.75V68.75H356.75V73.75V78.75H368V73.75ZM356.75 73.75V68.75H345.5V73.75V78.75H356.75V73.75ZM345.5 73.75H340.5V85H345.5H350.5V73.75H345.5ZM345.5 85H340.5V96.25H345.5H350.5V85H345.5ZM345.5 96.25H340.5V107.5H345.5H350.5V96.25H345.5ZM345.5 107.5H340.5V118.75H345.5H350.5V107.5H345.5ZM345.5 118.75H340.5V130H345.5H350.5V118.75H345.5ZM345.5 130V125H334.25V130V135H345.5V130ZM413 130H408V135H413V130ZM413 118.75H418V113.75H413V118.75ZM401.75 118.75H396.75V123.75H401.75V118.75ZM401.75 17.5V12.5H396.75V17.5H401.75ZM413 17.5V22.5H418V17.5H413ZM413 6.25V1.25H408V6.25H413ZM458 6.25H463V1.25H458V6.25ZM458 17.5H453V22.5H458V17.5ZM469.25 17.5H474.25V12.5H469.25V17.5ZM469.25 118.75V123.75H474.25V118.75H469.25ZM458 118.75V113.75H453V118.75H458ZM458 130V135H463V130H458ZM446.75 107.5V112.5H451.75V107.5H446.75ZM446.75 28.75H451.75V23.75H446.75V28.75ZM424.25 28.75V23.75H419.25V28.75H424.25ZM424.25 107.5H419.25V112.5H424.25V107.5ZM446.75 130V125H435.5V130V135H446.75V130ZM435.5 130V125H424.25V130V135H435.5V130ZM424.25 130V125H413V130V135H424.25V130ZM413 130H418V118.75H413H408V130H413ZM413 118.75V113.75H401.75V118.75V123.75H413V118.75ZM401.75 118.75H406.75V107.5H401.75H396.75V118.75H401.75ZM401.75 107.5H406.75V96.25H401.75H396.75V107.5H401.75ZM401.75 96.25H406.75V85H401.75H396.75V96.25H401.75ZM401.75 85H406.75V73.75H401.75H396.75V85H401.75ZM401.75 73.75H406.75V62.5H401.75H396.75V73.75H401.75ZM401.75 62.5H406.75V51.25H401.75H396.75V62.5H401.75ZM401.75 51.25H406.75V40H401.75H396.75V51.25H401.75ZM401.75 40H406.75V28.75H401.75H396.75V40H401.75ZM401.75 28.75H406.75V17.5H401.75H396.75V28.75H401.75ZM401.75 17.5V22.5H413V17.5V12.5H401.75V17.5ZM413 17.5H418V6.25H413H408V17.5H413ZM413 6.25V11.25H424.25V6.25V1.25H413V6.25ZM424.25 6.25V11.25H435.5V6.25V1.25H424.25V6.25ZM435.5 6.25V11.25H446.75V6.25V1.25H435.5V6.25ZM446.75 6.25V11.25H458V6.25V1.25H446.75V6.25ZM458 6.25H453V17.5H458H463V6.25H458ZM458 17.5V22.5H469.25V17.5V12.5H458V17.5ZM469.25 17.5H464.25V28.75H469.25H474.25V17.5H469.25ZM469.25 28.75H464.25V40H469.25H474.25V28.75H469.25ZM469.25 40H464.25V51.25H469.25H474.25V40H469.25ZM469.25 51.25H464.25V62.5H469.25H474.25V51.25H469.25ZM469.25 62.5H464.25V73.75H469.25H474.25V62.5H469.25ZM469.25 73.75H464.25V85H469.25H474.25V73.75H469.25ZM469.25 85H464.25V96.25H469.25H474.25V85H469.25ZM469.25 96.25H464.25V107.5H469.25H474.25V96.25H469.25ZM469.25 107.5H464.25V118.75H469.25H474.25V107.5H469.25ZM469.25 118.75V113.75H458V118.75V123.75H469.25V118.75ZM458 118.75H453V130H458H463V118.75H458ZM458 130V125H446.75V130V135H458V130ZM435.5 107.5V112.5H446.75V107.5V102.5H435.5V107.5ZM446.75 107.5H451.75V96.25H446.75H441.75V107.5H446.75ZM446.75 96.25H451.75V85H446.75H441.75V96.25H446.75ZM446.75 85H451.75V73.75H446.75H441.75V85H446.75ZM446.75 73.75H451.75V62.5H446.75H441.75V73.75H446.75ZM446.75 62.5H451.75V51.25H446.75H441.75V62.5H446.75ZM446.75 51.25H451.75V40H446.75H441.75V51.25H446.75ZM446.75 40H451.75V28.75H446.75H441.75V40H446.75ZM446.75 28.75V23.75H435.5V28.75V33.75H446.75V28.75ZM435.5 28.75V23.75H424.25V28.75V33.75H435.5V28.75ZM424.25 28.75H419.25V40H424.25H429.25V28.75H424.25ZM424.25 40H419.25V51.25H424.25H429.25V40H424.25ZM424.25 51.25H419.25V62.5H424.25H429.25V51.25H424.25ZM424.25 62.5H419.25V73.75H424.25H429.25V62.5H424.25ZM424.25 73.75H419.25V85H424.25H429.25V73.75H424.25ZM424.25 85H419.25V96.25H424.25H429.25V85H424.25ZM424.25 96.25H419.25V107.5H424.25H429.25V96.25H424.25ZM424.25 107.5V112.5H435.5V107.5V102.5H424.25V107.5ZM491.75 130H486.75V135H491.75V130ZM491.75 118.75H496.75V113.75H491.75V118.75ZM480.5 118.75H475.5V123.75H480.5V118.75ZM480.5 6.25V1.25H475.5V6.25H480.5ZM503 6.25H508V1.25H503V6.25ZM503 107.5H498V112.5H503V107.5ZM548 107.5H553V102.5H548V107.5ZM548 130V135H553V130H548ZM536.75 130V125H525.5V130V135H536.75V130ZM525.5 130V125H514.25V130V135H525.5V130ZM514.25 130V125H503V130V135H514.25V130ZM503 130V125H491.75V130V135H503V130ZM491.75 130H496.75V118.75H491.75H486.75V130H491.75ZM491.75 118.75V113.75H480.5V118.75V123.75H491.75V118.75ZM480.5 118.75H485.5V107.5H480.5H475.5V118.75H480.5ZM480.5 107.5H485.5V96.25H480.5H475.5V107.5H480.5ZM480.5 96.25H485.5V85H480.5H475.5V96.25H480.5ZM480.5 85H485.5V73.75H480.5H475.5V85H480.5ZM480.5 73.75H485.5V62.5H480.5H475.5V73.75H480.5ZM480.5 62.5H485.5V51.25H480.5H475.5V62.5H480.5ZM480.5 51.25H485.5V40H480.5H475.5V51.25H480.5ZM480.5 40H485.5V28.75H480.5H475.5V40H480.5ZM480.5 28.75H485.5V17.5H480.5H475.5V28.75H480.5ZM480.5 17.5H485.5V6.25H480.5H475.5V17.5H480.5ZM480.5 6.25V11.25H491.75V6.25V1.25H480.5V6.25ZM491.75 6.25V11.25H503V6.25V1.25H491.75V6.25ZM503 6.25H498V17.5H503H508V6.25H503ZM503 17.5H498V28.75H503H508V17.5H503ZM503 28.75H498V40H503H508V28.75H503ZM503 40H498V51.25H503H508V40H503ZM503 51.25H498V62.5H503H508V51.25H503ZM503 62.5H498V73.75H503H508V62.5H503ZM503 73.75H498V85H503H508V73.75H503ZM503 85H498V96.25H503H508V85H503ZM503 96.25H498V107.5H503H508V96.25H503ZM503 107.5V112.5H514.25V107.5V102.5H503V107.5ZM514.25 107.5V112.5H525.5V107.5V102.5H514.25V107.5ZM525.5 107.5V112.5H536.75V107.5V102.5H525.5V107.5ZM536.75 107.5V112.5H548V107.5V102.5H536.75V107.5ZM548 107.5H543V118.75H548H553V107.5H548ZM548 118.75H543V130H548H553V118.75H548ZM548 130V125H536.75V130V135H548V130ZM559.25 130H554.25V135H559.25V130ZM559.25 107.5V102.5H554.25V107.5H559.25ZM581.75 107.5V112.5H586.75V107.5H581.75ZM581.75 28.75H586.75V23.75H581.75V28.75ZM559.25 28.75H554.25V33.75H559.25V28.75ZM559.25 6.25V1.25H554.25V6.25H559.25ZM626.75 6.25H631.75V1.25H626.75V6.25ZM626.75 28.75V33.75H631.75V28.75H626.75ZM604.25 28.75V23.75H599.25V28.75H604.25ZM604.25 107.5H599.25V112.5H604.25V107.5ZM626.75 107.5H631.75V102.5H626.75V107.5ZM626.75 130V135H631.75V130H626.75ZM615.5 130V125H604.25V130V135H615.5V130ZM604.25 130V125H593V130V135H604.25V130ZM593 130V125H581.75V130V135H593V130ZM581.75 130V125H570.5V130V135H581.75V130ZM570.5 130V125H559.25V130V135H570.5V130ZM559.25 130H564.25V118.75H559.25H554.25V130H559.25ZM559.25 118.75H564.25V107.5H559.25H554.25V118.75H559.25ZM559.25 107.5V112.5H570.5V107.5V102.5H559.25V107.5ZM570.5 107.5V112.5H581.75V107.5V102.5H570.5V107.5ZM581.75 107.5H586.75V96.25H581.75H576.75V107.5H581.75ZM581.75 96.25H586.75V85H581.75H576.75V96.25H581.75ZM581.75 85H586.75V73.75H581.75H576.75V85H581.75ZM581.75 73.75H586.75V62.5H581.75H576.75V73.75H581.75ZM581.75 62.5H586.75V51.25H581.75H576.75V62.5H581.75ZM581.75 51.25H586.75V40H581.75H576.75V51.25H581.75ZM581.75 40H586.75V28.75H581.75H576.75V40H581.75ZM581.75 28.75V23.75H570.5V28.75V33.75H581.75V28.75ZM570.5 28.75V23.75H559.25V28.75V33.75H570.5V28.75ZM559.25 28.75H564.25V17.5H559.25H554.25V28.75H559.25ZM559.25 17.5H564.25V6.25H559.25H554.25V17.5H559.25ZM559.25 6.25V11.25H570.5V6.25V1.25H559.25V6.25ZM570.5 6.25V11.25H581.75V6.25V1.25H570.5V6.25ZM581.75 6.25V11.25H593V6.25V1.25H581.75V6.25ZM593 6.25V11.25H604.25V6.25V1.25H593V6.25ZM604.25 6.25V11.25H615.5V6.25V1.25H604.25V6.25ZM615.5 6.25V11.25H626.75V6.25V1.25H615.5V6.25ZM626.75 6.25H621.75V17.5H626.75H631.75V6.25H626.75ZM626.75 17.5H621.75V28.75H626.75H631.75V17.5H626.75ZM626.75 28.75V23.75H615.5V28.75V33.75H626.75V28.75ZM615.5 28.75V23.75H604.25V28.75V33.75H615.5V28.75ZM604.25 28.75H599.25V40H604.25H609.25V28.75H604.25ZM604.25 40H599.25V51.25H604.25H609.25V40H604.25ZM604.25 51.25H599.25V62.5H604.25H609.25V51.25H604.25ZM604.25 62.5H599.25V73.75H604.25H609.25V62.5H604.25ZM604.25 73.75H599.25V85H604.25H609.25V73.75H604.25ZM604.25 85H599.25V96.25H604.25H609.25V85H604.25ZM604.25 96.25H599.25V107.5H604.25H609.25V96.25H604.25ZM604.25 107.5V112.5H615.5V107.5V102.5H604.25V107.5ZM615.5 107.5V112.5H626.75V107.5V102.5H615.5V107.5ZM626.75 107.5H621.75V118.75H626.75H631.75V107.5H626.75ZM626.75 118.75H621.75V130H626.75H631.75V118.75H626.75ZM626.75 130V125H615.5V130V135H626.75V130ZM649.25 130H644.25V135H649.25V130ZM649.25 118.75H654.25V113.75H649.25V118.75ZM638 118.75H633V123.75H638V118.75ZM638 17.5V12.5H633V17.5H638ZM649.25 17.5V22.5H654.25V17.5H649.25ZM649.25 6.25V1.25H644.25V6.25H649.25ZM694.25 6.25H699.25V1.25H694.25V6.25ZM694.25 17.5H689.25V22.5H694.25V17.5ZM705.5 17.5H710.5V12.5H705.5V17.5ZM705.5 118.75V123.75H710.5V118.75H705.5ZM694.25 118.75V113.75H689.25V118.75H694.25ZM694.25 130V135H699.25V130H694.25ZM683 107.5V112.5H688V107.5H683ZM683 28.75H688V23.75H683V28.75ZM660.5 28.75V23.75H655.5V28.75H660.5ZM660.5 107.5H655.5V112.5H660.5V107.5ZM683 130V125H671.75V130V135H683V130ZM671.75 130V125H660.5V130V135H671.75V130ZM660.5 130V125H649.25V130V135H660.5V130ZM649.25 130H654.25V118.75H649.25H644.25V130H649.25ZM649.25 118.75V113.75H638V118.75V123.75H649.25V118.75ZM638 118.75H643V107.5H638H633V118.75H638ZM638 107.5H643V96.25H638H633V107.5H638ZM638 96.25H643V85H638H633V96.25H638ZM638 85H643V73.75H638H633V85H638ZM638 73.75H643V62.5H638H633V73.75H638ZM638 62.5H643V51.25H638H633V62.5H638ZM638 51.25H643V40H638H633V51.25H638ZM638 40H643V28.75H638H633V40H638ZM638 28.75H643V17.5H638H633V28.75H638ZM638 17.5V22.5H649.25V17.5V12.5H638V17.5ZM649.25 17.5H654.25V6.25H649.25H644.25V17.5H649.25ZM649.25 6.25V11.25H660.5V6.25V1.25H649.25V6.25ZM660.5 6.25V11.25H671.75V6.25V1.25H660.5V6.25ZM671.75 6.25V11.25H683V6.25V1.25H671.75V6.25ZM683 6.25V11.25H694.25V6.25V1.25H683V6.25ZM694.25 6.25H689.25V17.5H694.25H699.25V6.25H694.25ZM694.25 17.5V22.5H705.5V17.5V12.5H694.25V17.5ZM705.5 17.5H700.5V28.75H705.5H710.5V17.5H705.5ZM705.5 28.75H700.5V40H705.5H710.5V28.75H705.5ZM705.5 40H700.5V51.25H705.5H710.5V40H705.5ZM705.5 51.25H700.5V62.5H705.5H710.5V51.25H705.5ZM705.5 62.5H700.5V73.75H705.5H710.5V62.5H705.5ZM705.5 73.75H700.5V85H705.5H710.5V73.75H705.5ZM705.5 85H700.5V96.25H705.5H710.5V85H705.5ZM705.5 96.25H700.5V107.5H705.5H710.5V96.25H705.5ZM705.5 107.5H700.5V118.75H705.5H710.5V107.5H705.5ZM705.5 118.75V113.75H694.25V118.75V123.75H705.5V118.75ZM694.25 118.75H689.25V130H694.25H699.25V118.75H694.25ZM694.25 130V125H683V130V135H694.25V130ZM671.75 107.5V112.5H683V107.5V102.5H671.75V107.5ZM683 107.5H688V96.25H683H678V107.5H683ZM683 96.25H688V85H683H678V96.25H683ZM683 85H688V73.75H683H678V85H683ZM683 73.75H688V62.5H683H678V73.75H683ZM683 62.5H688V51.25H683H678V62.5H683ZM683 51.25H688V40H683H678V51.25H683ZM683 40H688V28.75H683H678V40H683ZM683 28.75V23.75H671.75V28.75V33.75H683V28.75ZM671.75 28.75V23.75H660.5V28.75V33.75H671.75V28.75ZM660.5 28.75H655.5V40H660.5H665.5V28.75H660.5ZM660.5 40H655.5V51.25H660.5H665.5V40H660.5ZM660.5 51.25H655.5V62.5H660.5H665.5V51.25H660.5ZM660.5 62.5H655.5V73.75H660.5H665.5V62.5H660.5ZM660.5 73.75H655.5V85H660.5H665.5V73.75H660.5ZM660.5 85H655.5V96.25H660.5H665.5V85H660.5ZM660.5 96.25H655.5V107.5H660.5H665.5V96.25H660.5ZM660.5 107.5V112.5H671.75V107.5V102.5H660.5V107.5Z" fill="#242424" mask="url(#path-1-outside-1_815_3)"/>
</g>
<defs>
<filter id="filter0_d_815_3" x="0.9" y="0.15" width="717.7" height="143.95" filterUnits="userSpaceOnUse" color-interpolation-filters="sRGB">
<feFlood flood-opacity="0" result="BackgroundImageFix"/>
<feColorMatrix in="SourceAlpha" type="matrix" values="0 0 0 0 0 0 0 0 0 0 0 0 0 0 0 0 0 0 127 0" result="hardAlpha"/>
<feOffset dx="3" dy="4"/>
<feGaussianBlur stdDeviation="2.55"/>
<feComposite in2="hardAlpha" operator="out"/>
<feColorMatrix type="matrix" values="0 0 0 0 0 0 0 0 0 0 0 0 0 0 0 0 0 0 0.42 0"/>
<feBlend mode="normal" in2="BackgroundImageFix" result="effect1_dropShadow_815_3"/>
<feBlend mode="normal" in="SourceGraphic" in2="effect1_dropShadow_815_3" result="shape"/>
</filter>
</defs>
</svg>
