<svg width="395" height="91" viewBox="0 0 395 91" fill="none" xmlns="http://www.w3.org/2000/svg">
<path id="portfolio" d="M26.52 72.48C22.168 72.48 18.232 71.488 14.712 69.504C11.192 67.456 8.376 64.544 6.264 60.768C4.216 56.928 3.192 52.256 3.192 46.752C3.192 41.248 4.216 36.608 6.264 32.832C8.312 28.992 11.096 26.08 14.616 24.096C18.136 22.112 22.104 21.12 26.52 21.12C31.32 21.12 35.608 22.208 39.384 24.384C43.224 26.496 46.232 29.504 48.408 33.408C50.584 37.248 51.672 41.696 51.672 46.752C51.672 51.872 50.584 56.352 48.408 60.192C46.232 64.032 43.224 67.04 39.384 69.216C35.608 71.392 31.32 72.48 26.52 72.48ZM0.504001 90.624V21.6H7.032V36.768L6.36 46.848L7.32 57.024V90.624H0.504001ZM26.04 66.432C29.624 66.432 32.824 65.632 35.64 64.032C38.456 62.368 40.696 60.064 42.36 57.12C44.024 54.112 44.856 50.656 44.856 46.752C44.856 42.848 44.024 39.424 42.36 36.48C40.696 33.536 38.456 31.232 35.64 29.568C32.824 27.904 29.624 27.072 26.04 27.072C22.456 27.072 19.224 27.904 16.344 29.568C13.528 31.232 11.288 33.536 9.624 36.48C8.024 39.424 7.224 42.848 7.224 46.752C7.224 50.656 8.024 54.112 9.624 57.12C11.288 60.064 13.528 62.368 16.344 64.032C19.224 65.632 22.456 66.432 26.04 66.432ZM86.1105 72.48C81.2465 72.48 76.8625 71.392 72.9585 69.216C69.1185 66.976 66.0785 63.936 63.8385 60.096C61.5985 56.192 60.4785 51.744 60.4785 46.752C60.4785 41.696 61.5985 37.248 63.8385 33.408C66.0785 29.568 69.1185 26.56 72.9585 24.384C76.7985 22.208 81.1825 21.12 86.1105 21.12C91.1025 21.12 95.5185 22.208 99.3585 24.384C103.263 26.56 106.303 29.568 108.479 33.408C110.719 37.248 111.839 41.696 111.839 46.752C111.839 51.744 110.719 56.192 108.479 60.096C106.303 63.936 103.263 66.976 99.3585 69.216C95.4545 71.392 91.0385 72.48 86.1105 72.48ZM86.1105 66.432C89.7585 66.432 92.9905 65.632 95.8065 64.032C98.6225 62.368 100.831 60.064 102.431 57.12C104.095 54.112 104.927 50.656 104.927 46.752C104.927 42.784 104.095 39.328 102.431 36.384C100.831 33.44 98.6225 31.168 95.8065 29.568C92.9905 27.904 89.7905 27.072 86.2065 27.072C82.6225 27.072 79.4225 27.904 76.6065 29.568C73.7905 31.168 71.5505 33.44 69.8865 36.384C68.2225 39.328 67.3905 42.784 67.3905 46.752C67.3905 50.656 68.2225 54.112 69.8865 57.12C71.5505 60.064 73.7905 62.368 76.6065 64.032C79.4225 65.632 82.5905 66.432 86.1105 66.432ZM125.754 72V21.6H132.282V35.328L131.61 32.928C133.018 29.088 135.386 26.176 138.714 24.192C142.042 22.144 146.17 21.12 151.098 21.12V27.744C150.842 27.744 150.586 27.744 150.33 27.744C150.074 27.68 149.818 27.648 149.562 27.648C144.25 27.648 140.09 29.28 137.082 32.544C134.074 35.744 132.57 40.32 132.57 46.272V72H125.754ZM181.628 72.48C176.892 72.48 173.244 71.2 170.684 68.64C168.124 66.08 166.844 62.464 166.844 57.792V10.464H173.66V57.408C173.66 60.352 174.396 62.624 175.868 64.224C177.404 65.824 179.58 66.624 182.396 66.624C185.404 66.624 187.9 65.76 189.884 64.032L192.284 68.928C190.94 70.144 189.308 71.04 187.388 71.616C185.532 72.192 183.612 72.48 181.628 72.48ZM157.82 27.264V21.6H189.02V27.264H157.82ZM205.844 72V15.264C205.844 10.784 207.156 7.168 209.78 4.41599C212.404 1.664 216.18 0.287996 221.108 0.287996C223.028 0.287996 224.884 0.543997 226.676 1.056C228.468 1.568 229.972 2.368 231.188 3.456L228.884 8.544C227.924 7.712 226.804 7.104 225.524 6.72C224.244 6.272 222.868 6.048 221.396 6.048C218.516 6.048 216.308 6.848 214.772 8.44799C213.236 10.048 212.468 12.416 212.468 15.552V23.232L212.66 26.4V72H205.844ZM196.82 27.264V21.6H228.02V27.264H196.82ZM256.923 72.48C252.059 72.48 247.675 71.392 243.771 69.216C239.931 66.976 236.891 63.936 234.651 60.096C232.411 56.192 231.291 51.744 231.291 46.752C231.291 41.696 232.411 37.248 234.651 33.408C236.891 29.568 239.931 26.56 243.771 24.384C247.611 22.208 251.995 21.12 256.923 21.12C261.915 21.12 266.331 22.208 270.171 24.384C274.075 26.56 277.115 29.568 279.291 33.408C281.531 37.248 282.651 41.696 282.651 46.752C282.651 51.744 281.531 56.192 279.291 60.096C277.115 63.936 274.075 66.976 270.171 69.216C266.267 71.392 261.851 72.48 256.923 72.48ZM256.923 66.432C260.571 66.432 263.803 65.632 266.619 64.032C269.435 62.368 271.643 60.064 273.243 57.12C274.907 54.112 275.739 50.656 275.739 46.752C275.739 42.784 274.907 39.328 273.243 36.384C271.643 33.44 269.435 31.168 266.619 29.568C263.803 27.904 260.603 27.072 257.019 27.072C253.435 27.072 250.235 27.904 247.419 29.568C244.603 31.168 242.363 33.44 240.699 36.384C239.035 39.328 238.203 42.784 238.203 46.752C238.203 50.656 239.035 54.112 240.699 57.12C242.363 60.064 244.603 62.368 247.419 64.032C250.235 65.632 253.403 66.432 256.923 66.432ZM296.567 72V0.767996H303.383V72H296.567ZM322.348 72V21.6H329.164V72H322.348ZM325.804 10.464C324.396 10.464 323.212 9.984 322.252 9.024C321.292 8.064 320.812 6.912 320.812 5.568C320.812 4.224 321.292 3.10399 322.252 2.20799C323.212 1.248 324.396 0.767996 325.804 0.767996C327.212 0.767996 328.396 1.216 329.356 2.112C330.316 3.008 330.796 4.128 330.796 5.472C330.796 6.88 330.316 8.064 329.356 9.024C328.46 9.984 327.276 10.464 325.804 10.464ZM368.673 72.48C363.809 72.48 359.425 71.392 355.521 69.216C351.681 66.976 348.641 63.936 346.401 60.096C344.161 56.192 343.041 51.744 343.041 46.752C343.041 41.696 344.161 37.248 346.401 33.408C348.641 29.568 351.681 26.56 355.521 24.384C359.361 22.208 363.745 21.12 368.673 21.12C373.665 21.12 378.081 22.208 381.921 24.384C385.825 26.56 388.865 29.568 391.041 33.408C393.281 37.248 394.401 41.696 394.401 46.752C394.401 51.744 393.281 56.192 391.041 60.096C388.865 63.936 385.825 66.976 381.921 69.216C378.017 71.392 373.601 72.48 368.673 72.48ZM368.673 66.432C372.321 66.432 375.553 65.632 378.369 64.032C381.185 62.368 383.393 60.064 384.993 57.12C386.657 54.112 387.489 50.656 387.489 46.752C387.489 42.784 386.657 39.328 384.993 36.384C383.393 33.44 381.185 31.168 378.369 29.568C375.553 27.904 372.353 27.072 368.769 27.072C365.185 27.072 361.985 27.904 359.169 29.568C356.353 31.168 354.113 33.44 352.449 36.384C350.785 39.328 349.953 42.784 349.953 46.752C349.953 50.656 350.785 54.112 352.449 57.12C354.113 60.064 356.353 62.368 359.169 64.032C361.985 65.632 365.153 66.432 368.673 66.432Z" fill="white"/>
</svg>
